#!OML:ASF E:\Steps\Project 1\Capture day 1\Session 2\Subject.ASF
:FULLY-SPECIFIED
:DEGREES
412
root 12.1414 17.074 7.55424 -153.952 -2.78519 176.619
lowerback -32.3478 -2.10195 -7.23738
upperback -3.37489 -1.28664 -0.898652
thorax 12.9995 -1.44201 2.28169
lowerneck -3.60292 -1.53766 -0.0068089
upperneck 0.213395 -2.06843 0.0488581
head 0.655919 -1.04113 -0.0172867
rclavicle 2.79044e-014 -3.37934e-014
rhumerus -34.2389 -11.719 -83.8744
rradius 34.1883
rwrist -6.2101
rhand -3.73188 -55.0003
rfingers 7.12502
rthumb 22.0114 -83.7678
lclavicle 2.79044e-014 -3.37934e-014
lhumerus -30.4024 -6.0478 88.8396
lradius 28.1599
lwrist -0.835809
lhand -20.6232 -11.6718
lfingers 7.12502
lthumb 5.73819 18.2305
rfemur -19.2662 4.31177 20.949
rtibia 9.16942
rfoot -23.6226 -5.29177
rtoes -18.5993
lfemur -20.4786 -8.12341 -23.5102
ltibia 9.00164
lfoot -8.95025 -3.99507
ltoes -16.1074
413
root 12.1385 17.0723 7.55265 -153.994 -2.77272 176.617
lowerback -32.3401 -2.10384 -7.25099
upperback -3.38886 -1.28899 -0.894037
thorax 12.9804 -1.44416 2.29323
lowerneck -3.78559 -1.708 0.378436
upperneck 0.42096 -2.30746 -0.22554
head 0.743434 -1.16205 -0.170953
rclavicle -1.19022e-014 2.10712e-014
rhumerus -34.2944 -11.6618 -83.9655
rradius 34.2116
rwrist -6.37067
rhand -3.30842 -57.2163
rfingers 7.12502
rthumb 22.4179 -85.9354
lclavicle -1.19022e-014 2.10712e-014
lhumerus -30.4579 -6.13632 88.8022
lradius 28.0617
lwrist -0.639472
lhand -20.8067 -11.663
lfingers 7.12502
lthumb 5.56094 18.2441
rfemur -19.2814 4.55616 20.9013
rtibia 9.30944
rfoot -23.7201 -5.46949
rtoes -18.3827
lfemur -20.388 -8.12005 -23.5355
ltibia 8.92219
lfoot -9.00796 -4.01502
ltoes -16.7661
414
root 12.1349 17.0706 7.55103 -154.102 -2.74988 176.568
lowerback -32.3638 -2.15024 -7.31478
upperback -3.30153 -1.30485 -0.880082
thorax 13.0929 -1.45218 2.33483
lowerneck -3.7455 -1.70219 0.32185
upperneck 0.219606 -2.30308 -0.0105867
head 0.677305 -1.15913 -0.0943544
rclavicle 3.72721e-016 1.43125e-014
rhumerus -34.2203 -11.622 -84.0349
rradius 34.2141
rwrist -6.35626
rhand -2.6574 -56.8944
rfingers 7.12502
rthumb 23.0427 -85.5368
lclavicle 3.72721e-016 1.43125e-014
lhumerus -30.4013 -6.0783 88.7067
lradius 27.9354
lwrist -0.740952
lhand -21.1547 -11.8085
lfingers 7.12502
lthumb 5.22501 18.1071
rfemur -19.1087 4.78658 20.7992
rtibia 9.24224
rfoot -23.8011 -5.62229
rtoes -18.0654
lfemur -20.2065 -8.13263 -23.6312
ltibia 8.86328
lfoot -9.07816 -3.98656
ltoes -17.2552
415
root 12.1327 17.071 7.55335 -154.164 -2.77361 176.547
lowerback -32.5001 -2.22475 -7.3775
upperback -3.14029 -1.33811 -0.816509
thorax 13.3415 -1.46877 2.41884
lowerneck -3.55644 -1.51008 -0.135959
upperneck -0.330715 -2.04013 0.50802
head 0.486874 -1.02778 0.146579
rclavicle 2.45996e-015 6.36111e-015
rhumerus -34.0003 -11.6283 -84.0659
rradius 34.2116
rwrist -6.1865
rhand -1.77292 -57.1746
rfingers 7.12502
rthumb 23.8912 -85.7086
lclavicle 2.45996e-015 6.36111e-015
lhumerus -30.1334 -5.71168 88.5646
lradius 27.638
lwrist -1.11298
lhand -21.665 -12.3617
lfingers 7.12502
lthumb 4.73227 17.5655
rfemur -19.0399 4.78372 20.778
rtibia 9.22872
rfoot -23.8117 -5.70946
rtoes -18.613
lfemur -20.1569 -8.04071 -23.6753
ltibia 8.91068
lfoot -9.09438 -4.092
ltoes -17.279
416
root 12.1318 17.0717 7.55297 -154.212 -2.82114 176.59
lowerback -32.6043 -2.23158 -7.38354
upperback -3.04866 -1.31897 -0.785472
thorax 13.4907 -1.46008 2.46021
lowerneck -3.69014 -1.51474 -0.127599
upperneck -0.509837 -2.05139 0.461028
head 0.45338 -1.03635 0.130551
rclavicle 5.56597e-015 1.19271e-014
rhumerus -33.9184 -11.8047 -84.085
rradius 34.2219
rwrist -6.02944
rhand -2.17032 -56.9284
rfingers 7.12502
rthumb 23.51 -85.5117
lclavicle 5.56597e-015 1.19271e-014
lhumerus -29.9672 -5.44439 88.3871
lradius 27.3476
lwrist -1.44721
lhand -21.8075 -12.1802
lfingers 7.12502
lthumb 4.59464 17.75
rfemur -18.9792 4.83582 20.8345
rtibia 9.21517
rfoot -23.796 -5.82601
rtoes -19.0299
lfemur -20.1168 -8.02008 -23.6104
ltibia 8.9178
lfoot -9.09144 -4.15281
ltoes -17.0961
417
root 12.1285 17.0699 7.54955 -154.235 -2.82599 176.602
lowerback -32.6145 -2.19269 -7.38762
upperback -3.07058 -1.26879 -0.81811
thorax 13.4636 -1.43862 2.44711
lowerneck -3.68376 -1.45857 -0.140159
upperneck -0.576168 -1.97781 0.534759
head 0.432728 -0.999747 0.156329
rclavicle 9.88954e-015 -7.95139e-016
rhumerus -34.075 -12.0586 -84.0781
rradius 34.2803
rwrist -5.95064
rhand -2.42302 -56.7713
rfingers 7.12502
rthumb 23.2676 -85.3855
lclavicle 9.88954e-015 -7.95139e-016
lhumerus -30.003 -5.36699 88.2077
lradius 27.1216
lwrist -1.59742
lhand -21.6942 -11.5831
lfingers 7.12502
lthumb 4.70409 18.3447
rfemur -18.925 4.8857 20.8217
rtibia 9.19194
rfoot -23.8372 -5.76891
rtoes -18.3078
lfemur -20.0651 -8.04289 -23.6195
ltibia 8.88588
lfoot -9.15923 -4.09571
ltoes -17.95
418
root 12.124 17.0666 7.54953 -154.157 -2.85058 176.586
lowerback -32.7083 -2.21322 -7.42206
upperback -3.11119 -1.29164 -0.811604
thorax 13.4571 -1.45542 2.45972
lowerneck -3.74876 -1.34259 -0.0990287
upperneck -0.37177 -1.82022 0.365815
head 0.50367 -0.920245 0.0994458
rclavicle -4.24902e-015 1.43125e-014
rhumerus -34.2485 -12.3039 -84.0059
rradius 34.2827
rwrist -5.7552
rhand -2.72925 -56.4071
rfingers 7.12502
rthumb 22.9738 -85.0582
lclavicle -4.24902e-015 1.43125e-014
lhumerus -29.9324 -5.06253 88.0289
lradius 26.7175
lwrist -1.75447
lhand -21.5973 -11.7571
lfingers 7.12502
lthumb 4.79758 18.1686
rfemur -19.0158 4.81059 20.7772
rtibia 9.20477
rfoot -23.9253 -5.62754
rtoes -17.738
lfemur -20.1401 -8.0162 -23.654
ltibia 8.87959
lfoot -9.16686 -4.1241
ltoes -18.1572
